<?xml version="1.0" standalone="no"?>
<!DOCTYPE svg PUBLIC "-//W3C//DTD SVG 20010904//EN"
 "http://www.w3.org/TR/2001/REC-SVG-20010904/DTD/svg10.dtd">
<svg version="1.0" xmlns="http://www.w3.org/2000/svg"
 width="1600.000000pt" height="1600.000000pt" viewBox="0 0 1600.000000 1600.000000"
 preserveAspectRatio="xMidYMid meet">
<metadata>
Created by potrace 1.11, written by Peter Selinger 2001-2013
</metadata>
<g transform="translate(0.000000,1600.000000) scale(0.100000,-0.100000)"
fill="#000000" stroke="none">
<path d="M11985 10545 c-146 -35 -230 -81 -321 -173 -113 -117 -168 -254 -168
-422 0 -150 36 -258 123 -370 19 -25 216 -226 438 -447 236 -237 395 -403 385
-403 -22 -1 -3897 -1 -3984 0 l-67 0 -26 88 c-49 160 -149 392 -231 532 -125
214 -290 414 -504 609 -48 44 -202 160 -275 207 -267 172 -618 306 -910 349
-23 3 -50 7 -62 9 -126 25 -487 25 -635 1 -13 -2 -43 -6 -68 -9 -25 -3 -54 -8
-65 -10 -453 -92 -814 -270 -1169 -576 -91 -78 -230 -230 -317 -345 -245 -323
-422 -746 -465 -1110 -4 -27 -8 -53 -10 -56 -5 -9 -17 -213 -17 -294 0 -78 11
-261 19 -315 40 -271 108 -500 213 -724 43 -92 71 -141 166 -297 54 -89 174
-238 280 -348 357 -371 829 -622 1325 -706 136 -23 136 -23 230 -30 234 -19
448 -4 693 46 168 35 332 89 482 158 48 23 89 41 92 41 11 0 207 120 292 178
129 89 216 164 348 299 262 268 455 588 568 943 20 63 40 122 44 130 7 13 246
15 2035 15 1114 0 2026 -2 2026 -6 0 -3 -173 -178 -385 -390 -402 -400 -454
-458 -498 -549 -57 -119 -76 -277 -48 -400 55 -236 257 -431 496 -475 38 -7
181 -7 218 0 75 15 170 56 244 107 23 15 473 460 1000 987 1022 1022 1009
1007 1054 1151 27 85 33 225 14 310 -9 36 -34 103 -57 150 l-41 85 -981 980
c-714 713 -996 989 -1037 1013 -144 84 -286 106 -444 67z"/>
</g>
</svg>
